<svg id="Layer_1" data-name="Layer 1" xmlns="http://www.w3.org/2000/svg" viewBox="0 0 355.85 573.98"><defs><style>.cls-1{fill:#fff;}</style></defs><title>bird-alt-white</title><path class="cls-1" d="M291,397.42Q210.51,287.78,76.27,263.19c-17-3.15-34.31-3.94-51.56-5.32-5.58-.46-7,1.44-6.76,6.82,1.24,28.61,4,57.15,12.66,84.51,39.3,125.25,122.49,205,250.17,237.5a255.41,255.41,0,0,0,56.09,7.68c19,1.57,18.9,1.57,17.65-20-3.93-65.15-24.8-124.46-63.51-176.95Zm82.28-10.1c-1.38-47-24.15-83.13-61.22-110.55-32.67-24.28-70.26-35-110.55-36.74-3.67-.2-6.23-.33-6-5.25,2.1-59.58,19.15-112.85,64.29-154.38C269,71.93,280,66.29,291.93,61.11,269.69,39.52,244,25.88,214,22.27c-63.45-7.68-111.34,20-148.67,68.82C37.17,127.77,23.2,170.15,19.19,216c-.32,3.61-.91,6.63,4.86,6.89,76.5,4.46,145.85,29.39,207.46,74.8,65.08,47.89,111.33,110.35,138.3,186.78.79,2.24.85,5,3.67,7.16-.06-35.37.79-69.88-.19-104.32ZM182.3,77.51c-.2-9.91,8.27-18.24,18.37-18.11,9.78.13,17.91,8.34,17.85,17.85s-8.4,17.78-18,17.84S182.5,87,182.3,77.51Zm50.85,84c15.87-6.69,31.09-5.77,46.18-.2,15.75,5.78,24.15,19.23,32.42,33.46,4.92-7.8,6.88-15.68,8.13-23.75,2.76-17.71,4.46-35.42-.52-53-3.15-11.28-8.93-21.19-16.14-30.31-1.71-2.16-3.15-2.82-6-1.71-25.85,10.31-58.33,48-64.1,75.52Z" transform="translate(-17.92 -21)"/></svg>